<svg id="Layer_1" data-name="Layer 1" xmlns="http://www.w3.org/2000/svg" viewBox="0 0 120 21.12"><defs><style>.cls-1{fill:#004260;}.cls-2{fill:#ea700c;}</style></defs><title>biz-full-logo</title><path class="cls-1" d="M2.16,1.72A3.84,3.84,0,0,1,3.94.65,5.56,5.56,0,0,1,5.3.47q.51,0,1.41.08,3.06.31,7.52.31a12,12,0,0,1,5,.92,3.08,3.08,0,0,1,2,3,2.81,2.81,0,0,1-1.61,2.5,10.25,10.25,0,0,1-3.56,1.25,10.69,10.69,0,0,1,3.31.77,6.41,6.41,0,0,1,2.53,1.82,4.27,4.27,0,0,1,1,2.82,5.48,5.48,0,0,1-1.47,4,8.6,8.6,0,0,1-3.66,2.28,13.7,13.7,0,0,1-4.22.7,10.75,10.75,0,0,1-4.88-1.09A4.57,4.57,0,0,1,6.1,16.1Q6,15.63,6,15.45a4,4,0,0,1,.85-2.54,5.64,5.64,0,0,1,2.17-1.7,6.43,6.43,0,0,1,2.68-.6,5.07,5.07,0,0,1,2.35.51,3.72,3.72,0,0,1,1.49,1.31,3.09,3.09,0,0,1,.51,1.66,2.58,2.58,0,0,1-.33,1.27,2.5,2.5,0,0,1-1,1A1.35,1.35,0,0,0,14.3,15a2.33,2.33,0,0,0-1.51-.48,3,3,0,0,0-1.81.57,2.48,2.48,0,0,0-1,2.13,3.27,3.27,0,0,0,.43,1.59,3.32,3.32,0,0,0,3,1.74,4,4,0,0,0,2.57-.83,5,5,0,0,0,1.57-2.17A7.87,7.87,0,0,0,18,14.7a8.29,8.29,0,0,0-.55-3,5,5,0,0,0-1.61-2.24,3.46,3.46,0,0,0-2.51-.69v1.4A7.54,7.54,0,0,0,11.83,10a8.77,8.77,0,0,0-2,.22,7.41,7.41,0,0,0-1.68.59V2.39a1.25,1.25,0,0,0-.55-1.12A2.28,2.28,0,0,0,6.34.91a2,2,0,0,0-.83.16q-.35.16-.35.39T5.62,2a3,3,0,0,1,.85.87A2,2,0,0,1,6.82,4,2.51,2.51,0,0,1,6,5.85a2.78,2.78,0,0,1-2,.75,2.72,2.72,0,0,1-1.48-.43,2.81,2.81,0,0,1-1-1.11,2.38,2.38,0,0,1-.27-1.38A3.43,3.43,0,0,1,2.16,1.72ZM15.22,7.78a4.12,4.12,0,0,0,1.17-1.64,5.3,5.3,0,0,0,.4-2A3.57,3.57,0,0,0,16.16,2a2,2,0,0,0-1.8-.83,1.16,1.16,0,0,0-.76.18.75.75,0,0,0-.23.52V8.51A3.14,3.14,0,0,0,15.22,7.78Z"/><path class="cls-1" d="M30.92,18.83h.67v.26H24v-.26h.67q.53,0,.53-.78V9.23a.87.87,0,0,0-.35-.78A1.36,1.36,0,0,0,24,8.25V8a10.63,10.63,0,0,0,3.23-.6,15,15,0,0,0,3.09-1.35l.11.13V18.08Q30.38,18.8,30.92,18.83ZM26.3,5a2.25,2.25,0,0,1-.69-1.65,2.25,2.25,0,0,1,.69-1.65A2.29,2.29,0,0,1,28,1a2.34,2.34,0,0,1,1.69.69,2.23,2.23,0,0,1,.71,1.65A2.23,2.23,0,0,1,29.68,5,2.34,2.34,0,0,1,28,5.64,2.29,2.29,0,0,1,26.3,5Z"/><path class="cls-1" d="M43.84,7.1,38.4,18.05a1.55,1.55,0,0,0-.13.49q0,.26.29.29h1.68q1.41,0,3.54-5.25H44A20.69,20.69,0,0,0,43.9,16a15.45,15.45,0,0,0,.27,3.07H32.65q1.47-2.63,2.69-5t3.31-7a1.36,1.36,0,0,0,.13-.44q0-.29-.32-.29H36.54q-.64,0-1.27,1A15.16,15.16,0,0,0,34,10h-.24q-.19-3.07-.29-3.88H44.56l-.16.26A2.89,2.89,0,0,0,43.84,7.1Z"/><path class="cls-2" d="M53,7.19q.85.66,2.29,1.65t2.52,1.83a8.25,8.25,0,0,1,1.64,1.78A3.8,3.8,0,0,1,57.92,18a11.43,11.43,0,0,1-5.49,1.24,9.86,9.86,0,0,1-3.64-.57,4.61,4.61,0,0,1-2.08-1.47,3.19,3.19,0,0,1-.65-1.91,3,3,0,0,1,.35-1.42,2.59,2.59,0,0,1,.93-1,2.93,2.93,0,0,1,1.6-.49,1.92,1.92,0,0,1,1.36.49,1.6,1.6,0,0,1,.53,1.22,2,2,0,0,1-.88,1.59,1.16,1.16,0,0,0-.43,1,2.08,2.08,0,0,0,.32,1.08,2.41,2.41,0,0,0,.93.87,2.88,2.88,0,0,0,1.41.34A2.48,2.48,0,0,0,54,18.25a2.33,2.33,0,0,0,.68-1.7,3,3,0,0,0-.28-1.25,3.73,3.73,0,0,0-.81-1.14A15,15,0,0,0,52.24,13q-.69-.51-2-1.37-1.6-1.07-2.52-1.81a6.46,6.46,0,0,1-1.52-1.76,4.46,4.46,0,0,1-.6-2.31,3.92,3.92,0,0,1,1-2.59,6.55,6.55,0,0,1,2.6-1.82A9.22,9.22,0,0,1,52.72.68q.59,0,.88,0a9,9,0,0,1,3.15.86,4.84,4.84,0,0,1,1.84,1.52,3.16,3.16,0,0,1,.59,1.78,2.33,2.33,0,0,1-.64,1.66,2.2,2.2,0,0,1-1.68.68,3.81,3.81,0,0,1-1.41-.31,3.08,3.08,0,0,0,.72-2.13A4.53,4.53,0,0,0,55.8,3a3.64,3.64,0,0,0-1-1.39,2.11,2.11,0,0,0-1.4-.53,2.67,2.67,0,0,0-1.95.73,2.44,2.44,0,0,0-.75,1.82,3.43,3.43,0,0,0,.8,2.16A8.1,8.1,0,0,0,53,7.19Z"/><path class="cls-2" d="M72.25,19.09a2.71,2.71,0,0,1-1.45-.38,1.71,1.71,0,0,1-.6-1.37,3.44,3.44,0,0,1-1.41,1.16,5.54,5.54,0,0,1-2.27.66,4.84,4.84,0,0,1-3.41-.88q-1.28-1-1.28-4V9.23a.87.87,0,0,0-.35-.78,1.36,1.36,0,0,0-.85-.21V8a10.5,10.5,0,0,0,3.21-.6,15.11,15.11,0,0,0,3.08-1.35l.11.13v9a4.63,4.63,0,0,0,.4,2.24,1.17,1.17,0,0,0,1,.68,1.78,1.78,0,0,0,1.15-.47,1.51,1.51,0,0,0,.61-.91V9.23a.87.87,0,0,0-.35-.78A1.36,1.36,0,0,0,69,8.25V8a10.5,10.5,0,0,0,3.21-.6,15.11,15.11,0,0,0,3.08-1.35l.11.13V18.08a1,1,0,0,0,.13.55.44.44,0,0,0,.4.21h.69v.26Z"/><path class="cls-2" d="M86,6.37H84.54v11.7q0,.73.51.75h.69v.26l-4.34,0a2.51,2.51,0,0,1-1.56-.46,2.16,2.16,0,0,1-.52-1.7V7.36A.85.85,0,0,0,79,6.58a1.31,1.31,0,0,0-.71-.21h-.59V6.09a6.4,6.4,0,0,0,4-1.29A8.69,8.69,0,0,0,84.38.89l.16.13V6.09H86Z"/><path class="cls-2" d="M99.23,5.83a3.64,3.64,0,0,1,2.12.6,2.81,2.81,0,0,1,1.13,1.77,4.15,4.15,0,0,1,.08.78,2.44,2.44,0,0,1-.91,2,3.19,3.19,0,0,1-2.08.74,2.88,2.88,0,0,1-1.79-.59,2.47,2.47,0,0,1-.93-1.7q-.27-1.77-1.15-1.77a1.75,1.75,0,0,0-1.09.49,7.17,7.17,0,0,0-1.07,1.12v8.82q0,.73.53.75h.67v.26H87.13v-.26h.67q.53,0,.53-.78V9.23q0-1-.93-1l-.29,0V8a21.49,21.49,0,0,0,6.34-2l.11.13V8.79a8.53,8.53,0,0,1,1.52-1.43,7.9,7.9,0,0,1,2-1.12A6.67,6.67,0,0,1,99.23,5.83Z"/><path class="cls-2" d="M115.86,19.09h-1.47a2.69,2.69,0,0,1-1.47-.38,1.74,1.74,0,0,1-.59-1.37A3,3,0,0,1,110.72,19a6.3,6.3,0,0,1-2.69.56,7,7,0,0,1-2.48-.44,4.22,4.22,0,0,1-1.85-1.29,2.74,2.74,0,0,1-.57-2,3.65,3.65,0,0,1,.95-2.2A5.62,5.62,0,0,1,106,12.22a27.83,27.83,0,0,1,2.76-1q1.28-.39,2-.66a3.72,3.72,0,0,0,1.15-.7,1.38,1.38,0,0,0,.47-1.05,3.43,3.43,0,0,0-.43-2,1.73,1.73,0,0,0-1.57-.53,1.93,1.93,0,0,0-1.89,1.9,1.46,1.46,0,0,0,.33.94,2,2,0,0,0,1,.62,3,3,0,0,1-1.43,1,5.45,5.45,0,0,1-2.07.42,3,3,0,0,1-1.75-.49,1.72,1.72,0,0,1-.71-1.51,2.15,2.15,0,0,1,1-1.73,6.93,6.93,0,0,1,2.45-1.14,11.81,11.81,0,0,1,3.09-.4,9.9,9.9,0,0,1,5.17,1.26q2.11,1.26,2.11,4.88v6q0,.75.53.75h.67v.26Zm-6-1.3a2.56,2.56,0,0,0,.8.13,1.61,1.61,0,0,0,1.15-.46,2,2,0,0,0,.51-1.44V9.75A15.16,15.16,0,0,1,110.45,12l-1.11,1.26a4.51,4.51,0,0,0-.63.95,2.89,2.89,0,0,0-.35,1.38,2.5,2.5,0,0,0,.21,1,2,2,0,0,0,.61.79A2.15,2.15,0,0,0,109.86,17.79Z"/></svg>