<svg id="Layer_1" data-name="Layer 1" xmlns="http://www.w3.org/2000/svg" viewBox="0 0 50 50"><defs><style>.cls-1{fill:#004260;}.cls-2{fill:#fff;}</style></defs><title>bizlogoSmall</title><path class="cls-1" d="M37.68,36.4a5,5,0,0,1,0,1,6.39,6.39,0,0,1-1.21,3,6.67,6.67,0,0,1-1,1.07,9.21,9.21,0,0,1-6,2.06c-3.09,0-6.7-1.12-8.49-3.8s-.69-7.15,3.08-7.09a5.55,5.55,0,0,0-4.75-1.44,5.73,5.73,0,0,0-3.72,3.56A10.45,10.45,0,0,0,18,45.58a14.84,14.84,0,0,0,10.56,4.29l-22.34,0V.16C12.6.41,19-.28,25.39.45c2.5.29,5.22.94,6.7,3a4.9,4.9,0,0,0-2.29-.92,12.7,12.7,0,0,0-11.49,4,13.2,13.2,0,0,0-2.82,11.89,12.1,12.1,0,0,0,3.63,6c3.85,3.39,9.46,3.68,14.12,5.81,1.79.82,3.7,2.18,4.28,4.16a5.08,5.08,0,0,1,.14,1.42C37.65,36,37.67,36.21,37.68,36.4Z"/><path class="cls-1" d="M43.45,37q0-.56,0-1.13A13.36,13.36,0,0,0,43,32.42a16.26,16.26,0,0,0-1.18-3.17A12.06,12.06,0,0,0,37,24.4a39.56,39.56,0,0,0-8-2.88c-4.71-1.32-6.38-2.4-7-3.05a5.27,5.27,0,0,1-1.25-3.65,6,6,0,0,1,1.77-4.38C23.74,9.21,25.73,8.6,28.5,8.6c2.57,0,4.53.67,5.82,2A7.37,7.37,0,0,1,35.86,13a11.32,11.32,0,0,1-2.05,5.69l-.07.06.07.07A14.69,14.69,0,0,1,39,22.3,16,16,0,0,1,43.45,37Z"/><path class="cls-2" d="M24.61,42.69A10.21,10.21,0,0,0,25.39,44a7.37,7.37,0,0,1-.72-1.13A1,1,0,0,1,24.61,42.69Z"/></svg>